<svg width="100" height="102" viewBox="0 0 100 102" fill="none" xmlns="http://www.w3.org/2000/svg">
<mask id="path-1-inside-1_275_6135" fill="white">
<path d="M0 0H100V85H0V0Z"/>
</mask>
<path d="M0 0V-2H-2V0H0ZM100 0H102V-2H100V0ZM0 2H100V-2H0V2ZM98 0V85H102V0H98ZM2 85V0H-2V85H2Z" fill="#71CE00" mask="url(#path-1-inside-1_275_6135)"/>
<line x1="43" y1="84" x2="98" y2="84" stroke="#71CE00" stroke-width="2"/>
<line x1="2" y1="84" x2="22" y2="84" stroke="#71CE00" stroke-width="2"/>
<path d="M22.0309 82.995L22 98L41 84L43 84" stroke="#71CE00" stroke-width="2"/>
<circle cx="30.5" cy="42.5" r="6.5" stroke="#71CE00" stroke-width="2"/>
<circle cx="70.5" cy="42.5" r="6.5" stroke="#71CE00" stroke-width="2"/>
<circle cx="50.5" cy="42.5" r="6.5" stroke="#71CE00" stroke-width="2"/>
</svg>
