<svg width="104" height="104" viewBox="0 0 104 104" fill="none" xmlns="http://www.w3.org/2000/svg">
<path d="M104 52C104 80.7188 80.7188 104 52 104C23.2812 104 0 80.7188 0 52C0 23.2812 23.2812 0 52 0C80.7188 0 104 23.2812 104 52ZM16.2534 52C16.2534 71.7423 32.2577 87.7466 52 87.7466C71.7423 87.7466 87.7466 71.7423 87.7466 52C87.7466 32.2577 71.7423 16.2534 52 16.2534C32.2577 16.2534 16.2534 32.2577 16.2534 52Z" fill="#928A97" fill-opacity="0.3"/>
<path d="M52 103C42.5945 103 33.3721 100.399 25.3526 95.4846C17.333 90.5703 10.8287 83.5339 6.55867 75.1535C2.28864 66.7731 0.419266 57.3751 1.15722 47.9986C1.89517 38.622 5.2117 29.6322 10.7401 22.023C16.2686 14.4137 23.7936 8.48149 32.4831 4.88214C41.1727 1.2828 50.6884 0.156544 59.9782 1.62789C69.2679 3.09925 77.9698 7.11089 85.1219 13.2193C92.2739 19.3277 97.5974 27.2949 100.504 36.2401L86.9228 40.6529C84.8301 34.2124 80.9972 28.4759 75.8477 24.0779C70.6983 19.6798 64.4329 16.7915 57.7443 15.7321C51.0557 14.6727 44.2044 15.4836 37.9479 18.0751C31.6914 20.6667 26.2734 24.9379 22.2929 30.4165C18.3124 35.8952 15.9245 42.3679 15.3932 49.119C14.8619 55.8701 16.2078 62.6366 19.2822 68.6705C22.3567 74.7044 27.0398 79.7706 32.8139 83.3089C38.5879 86.8473 45.228 88.72 52 88.72L52 103Z" fill="#F44336"/>
</svg>
