<svg width="104" height="104" viewBox="0 0 104 104" fill="none" xmlns="http://www.w3.org/2000/svg">
<path d="M104 52C104 80.7188 80.7188 104 52 104C23.2812 104 0 80.7188 0 52C0 23.2812 23.2812 0 52 0C80.7188 0 104 23.2812 104 52ZM16.3942 52C16.3942 71.6645 32.3355 87.6058 52 87.6058C71.6645 87.6058 87.6058 71.6645 87.6058 52C87.6058 32.3355 71.6645 16.3942 52 16.3942C32.3355 16.3942 16.3942 32.3355 16.3942 52Z" fill="#928A97" fill-opacity="0.3"/>
<path d="M52 103C39.8568 103 28.112 98.6671 18.8782 90.7807C9.64444 82.8943 3.52763 71.9719 1.62801 59.9782C-0.271613 47.9844 2.17063 35.7064 8.51546 25.3526C14.8603 14.9988 24.6913 7.24859 36.2402 3.49612C47.7891 -0.256346 60.298 0.235131 71.5169 4.88215C82.7357 9.52917 91.9284 18.0268 97.4413 28.8465C102.954 39.6662 104.757 52.1824 101.591 63.9057C99 73.5 96.5 77 96.5 77L89.5 73.5L83.5 70.5C83.5 70.5 85 69 87.7054 60.5721C89.7464 52.0706 88.687 43.1197 84.7177 35.3295C80.7484 27.5393 74.1297 21.421 66.0521 18.0752C57.9745 14.7293 48.9682 14.3754 40.6529 17.0772C32.3377 19.779 25.2594 25.3591 20.6911 32.8139C16.1229 40.2686 14.3644 49.1088 15.7322 57.7443C17.0999 66.3798 21.504 74.2439 28.1523 79.9221C34.8007 85.6003 43.2569 88.72 52 88.72C52 88.72 52 91.78 52 95.86C52 99.94 52 103 52 103Z" fill="#F44336"/>
</svg>
