<svg width="104" height="104" viewBox="0 0 104 104" fill="none" xmlns="http://www.w3.org/2000/svg">
<path d="M104 52C104 80.7188 80.7188 104 52 104C23.2812 104 0 80.7188 0 52C0 23.2812 23.2812 0 52 0C80.7188 0 104 23.2812 104 52ZM16.3297 52C16.3297 71.7002 32.2998 87.6703 52 87.6703C71.7002 87.6703 87.6703 71.7002 87.6703 52C87.6703 32.2998 71.7002 16.3297 52 16.3297C32.2998 16.3297 16.3297 32.2998 16.3297 52Z" fill="#928A97" fill-opacity="0.3"/>
<path d="M52 103C39.8567 103 28.112 98.6671 18.8781 90.7807C9.64434 82.8943 3.52752 71.9719 1.62789 59.9782C-0.271729 47.9844 2.17052 35.7064 8.51535 25.3526C14.8602 14.9987 24.6912 7.24859 36.2401 3.49612C47.7891 -0.256356 60.2979 0.23512 71.5169 4.88215C82.7358 9.52917 91.9284 18.0268 97.4413 28.8465C102.954 39.6662 104.426 52.098 101.591 63.9057C98.7561 75.7135 91.8011 86.1222 81.977 93.2599L73.5835 81.7071C80.6568 76.568 85.6644 69.0737 87.7054 60.5721C89.7465 52.0705 88.6871 43.1197 84.7178 35.3295C80.7485 27.5393 74.1298 21.421 66.0521 18.0751C57.9745 14.7293 48.9681 14.3754 40.6529 17.0772C32.3377 19.779 25.2593 25.3591 20.6911 32.8139C16.1228 40.2686 14.3644 49.1088 15.7321 57.7443C17.0998 66.3798 21.5039 74.2439 28.1523 79.9221C34.8006 85.6003 43.2569 88.72 52 88.72L52 103Z" fill="#F44336"/>
</svg>
