<svg width="442" height="441" viewBox="0 0 442 441" fill="none" xmlns="http://www.w3.org/2000/svg">
<g filter="url(#filter0_d_425_115)">
<path d="M100.511 0C69.1794 7.93582 60.4727 16.4044 55 36.0747L73.0476 378H406.536C427.274 366.931 433.637 350.44 434 299.577C423.705 197.51 411.141 139.329 392.412 36.0747C382.968 21.7603 380.915 12.2025 343.762 10.9793L100.511 0Z" fill="#147578"/>
</g>
<g filter="url(#filter1_d_425_115)">
<path d="M0 337.695L37.5199 55.5321C46.4988 34.2465 54.4995 24.4931 81.0431 13.5078C164.926 5.63801 232.871 3.95855 346.684 0C376.017 8.8112 393.61 13.5281 408.217 55.5321C411.7 169.345 415.367 250.574 414.971 324.938C413.772 357.978 406.418 371.127 380.452 384.222C223.097 413.091 136.987 428.655 63.0335 433C18.4371 419.114 0.327199 399.961 0 337.695Z" fill="white"/>
</g>
<defs>
<filter id="filter0_d_425_115" x="55" y="0" width="387" height="386" filterUnits="userSpaceOnUse" color-interpolation-filters="sRGB">
<feFlood flood-opacity="0" result="BackgroundImageFix"/>
<feColorMatrix in="SourceAlpha" type="matrix" values="0 0 0 0 0 0 0 0 0 0 0 0 0 0 0 0 0 0 127 0" result="hardAlpha"/>
<feOffset dx="4" dy="4"/>
<feGaussianBlur stdDeviation="2"/>
<feComposite in2="hardAlpha" operator="out"/>
<feColorMatrix type="matrix" values="0 0 0 0 0.0784314 0 0 0 0 0.458824 0 0 0 0 0.470588 0 0 0 0.2 0"/>
<feBlend mode="normal" in2="BackgroundImageFix" result="effect1_dropShadow_425_115"/>
<feBlend mode="normal" in="SourceGraphic" in2="effect1_dropShadow_425_115" result="shape"/>
</filter>
<filter id="filter1_d_425_115" x="0" y="0" width="423" height="441" filterUnits="userSpaceOnUse" color-interpolation-filters="sRGB">
<feFlood flood-opacity="0" result="BackgroundImageFix"/>
<feColorMatrix in="SourceAlpha" type="matrix" values="0 0 0 0 0 0 0 0 0 0 0 0 0 0 0 0 0 0 127 0" result="hardAlpha"/>
<feOffset dx="4" dy="4"/>
<feGaussianBlur stdDeviation="2"/>
<feComposite in2="hardAlpha" operator="out"/>
<feColorMatrix type="matrix" values="0 0 0 0 0.0784314 0 0 0 0 0.458824 0 0 0 0 0.470588 0 0 0 0.2 0"/>
<feBlend mode="normal" in2="BackgroundImageFix" result="effect1_dropShadow_425_115"/>
<feBlend mode="normal" in="SourceGraphic" in2="effect1_dropShadow_425_115" result="shape"/>
</filter>
</defs>
</svg>
