<svg width="344" height="378" viewBox="0 0 344 378" fill="none" xmlns="http://www.w3.org/2000/svg">
<g filter="url(#filter0_d_425_101)">
<path d="M307.44 61.8502C314.38 139.437 317.8 181.752 319.463 246.071C317.076 271.056 312.536 281.852 294.483 291.145C221.845 322.395 171.164 346.451 111.71 369.048C86.6543 371.669 76.9103 366.31 67.0884 352.773C46.8909 303.162 37.1008 247.253 18.0305 176.999C13.1538 149.586 17.1694 137.679 37.4731 123.093C113.091 79.2136 223.384 18.352 223.384 18.352C223.384 18.352 244.219 4.79991 257.697 5.85088C273.666 8.68499 281.03 13.1534 290.686 22.8912C301.862 34.409 305.502 42.9507 307.44 61.8502Z" fill="#147578"/>
</g>
<g filter="url(#filter1_d_425_101)">
<path d="M303.941 63.3789C300.902 141.216 298.883 183.621 292.307 247.624C286.745 272.099 280.861 282.226 261.768 289.134C185.73 310.838 132.389 328.216 70.5327 343.024C45.348 342.42 36.3693 335.859 28.3592 321.177C14.6718 269.391 12.1119 212.689 2.18256 140.573C0.851593 112.761 6.35693 101.465 28.3592 89.5957C108.967 55.7465 226.138 9.48892 226.138 9.48892C226.138 9.48892 248.535 -1.28758 261.768 1.47825C277.243 6.33123 283.976 11.7047 292.307 22.5973C301.918 35.4498 304.436 44.3867 303.941 63.3789Z" fill="white"/>
</g>
<path d="M266 33L262 33C257.029 33 253 28.9706 253 24L253 21.5C253 17.9102 255.91 15 259.5 15C263.09 15 266 17.9102 266 21.5L266 33Z" fill="#42BD81"/>
<path d="M265 42L265 39C265 34.0294 269.029 30 274 30L277 30C280.314 30 283 32.6863 283 36C283 39.3137 280.314 42 277 42L265 42Z" fill="#61B762"/>
<defs>
<filter id="filter0_d_425_101" x="16.1558" y="5.79272" width="311.307" height="371.9" filterUnits="userSpaceOnUse" color-interpolation-filters="sRGB">
<feFlood flood-opacity="0" result="BackgroundImageFix"/>
<feColorMatrix in="SourceAlpha" type="matrix" values="0 0 0 0 0 0 0 0 0 0 0 0 0 0 0 0 0 0 127 0" result="hardAlpha"/>
<feOffset dx="4" dy="4"/>
<feGaussianBlur stdDeviation="2"/>
<feComposite in2="hardAlpha" operator="out"/>
<feColorMatrix type="matrix" values="0 0 0 0 0.0784314 0 0 0 0 0.458824 0 0 0 0 0.470588 0 0 0 0.2 0"/>
<feBlend mode="normal" in2="BackgroundImageFix" result="effect1_dropShadow_425_101"/>
<feBlend mode="normal" in="SourceGraphic" in2="effect1_dropShadow_425_101" result="shape"/>
</filter>
<filter id="filter1_d_425_101" x="1.99634" y="1.02429" width="310.004" height="350" filterUnits="userSpaceOnUse" color-interpolation-filters="sRGB">
<feFlood flood-opacity="0" result="BackgroundImageFix"/>
<feColorMatrix in="SourceAlpha" type="matrix" values="0 0 0 0 0 0 0 0 0 0 0 0 0 0 0 0 0 0 127 0" result="hardAlpha"/>
<feOffset dx="4" dy="4"/>
<feGaussianBlur stdDeviation="2"/>
<feComposite in2="hardAlpha" operator="out"/>
<feColorMatrix type="matrix" values="0 0 0 0 0.0784314 0 0 0 0 0.458824 0 0 0 0 0.470588 0 0 0 0.2 0"/>
<feBlend mode="normal" in2="BackgroundImageFix" result="effect1_dropShadow_425_101"/>
<feBlend mode="normal" in="SourceGraphic" in2="effect1_dropShadow_425_101" result="shape"/>
</filter>
</defs>
</svg>
