<svg width="22" height="17" viewBox="0 0 22 17" fill="none" xmlns="http://www.w3.org/2000/svg">
<path d="M5.85999 7.55007C5.12026 7.55257 4.39361 7.74543 3.74999 8.11007C4.65615 5.76458 6.15905 3.69635 8.10999 2.11007C8.22162 2.01815 8.31404 1.90514 8.38199 1.77749C8.44994 1.64985 8.49208 1.51007 8.50601 1.36614C8.51994 1.22221 8.50538 1.07694 8.46317 0.938637C8.42096 0.800332 8.35192 0.671696 8.25999 0.560072C8.16807 0.448448 8.05506 0.356023 7.92741 0.288074C7.79977 0.220126 7.65999 0.177985 7.51606 0.164056C7.37213 0.150127 7.22686 0.164684 7.08856 0.206896C6.95025 0.249107 6.82162 0.318146 6.70999 0.410071C2.70999 3.66007 0.929993 8.16007 0.929993 10.9501C0.936885 11.9366 1.23086 12.8997 1.77603 13.7219C2.3212 14.5441 3.09397 15.1898 3.99999 15.5801C4.58635 15.8641 5.22848 16.0144 5.87999 16.0201C6.45345 16.0479 7.0266 15.9591 7.56468 15.7588C8.10277 15.5586 8.59458 15.2511 9.01029 14.8551C9.42601 14.4591 9.75697 13.9828 9.9831 13.4551C10.2092 12.9274 10.3258 12.3592 10.3258 11.7851C10.3258 11.2109 10.2092 10.6428 9.9831 10.1151C9.75697 9.58732 9.42601 9.11102 9.01029 8.71502C8.59458 8.31902 8.10277 8.01158 7.56468 7.81133C7.0266 7.61108 6.45345 7.5222 5.87999 7.55007H5.85999Z" fill="#147578"/>
<path d="M17 7.55002C16.2602 7.55162 15.5333 7.74453 14.89 8.11002C15.7958 5.76698 17.2948 3.69945 19.24 2.11002C19.3618 2.02226 19.4643 1.91051 19.5412 1.78165C19.6182 1.65278 19.6679 1.50954 19.6875 1.36073C19.707 1.21191 19.6958 1.06068 19.6547 0.916331C19.6136 0.771984 19.5434 0.637579 19.4484 0.521387C19.3534 0.405194 19.2356 0.309673 19.1023 0.240701C18.969 0.17173 18.823 0.130769 18.6733 0.120336C18.5235 0.109904 18.3733 0.130222 18.2317 0.180041C18.0901 0.22986 17.9602 0.308125 17.85 0.41002C13.85 3.66002 12.07 8.16002 12.07 10.95C12.0747 11.9253 12.3602 12.8787 12.8921 13.6962C13.4241 14.5136 14.1802 15.1607 15.07 15.56C15.6712 15.8524 16.3315 16.0029 17 16C17.5735 16.0279 18.1466 15.939 18.6847 15.7388C19.2228 15.5385 19.7146 15.2311 20.1303 14.8351C20.546 14.4391 20.877 13.9628 21.1031 13.435C21.3293 12.9073 21.4459 12.3392 21.4459 11.765C21.4459 11.1909 21.3293 10.6227 21.1031 10.095C20.877 9.56727 20.546 9.09097 20.1303 8.69497C19.7146 8.29897 19.2228 7.99153 18.6847 7.79128C18.1466 7.59103 17.5735 7.50215 17 7.53002V7.55002Z" fill="#147578"/>
</svg>
