<svg width="16" height="16" viewBox="0 0 16 16" fill="none" xmlns="http://www.w3.org/2000/svg">
<path d="M6.35371 13.8727C6.0655 13.898 5.82096 13.9233 5.57642 13.9449C4.30568 14.0497 3.19651 13.7643 2.35808 12.9445C2.09607 12.688 1.9476 12.3558 1.72489 12.0704C1.37991 11.6226 1.0262 11.1783 0.646288 10.7485C0.515284 10.6005 0.28821 10.5138 0.113537 10.3874C0.0567688 10.3476 0.0393013 10.2718 0 10.2104C0.0786026 10.1851 0.152839 10.1418 0.231441 10.1345C1.23581 10.0587 1.94323 10.4415 2.43668 11.1314C3.0524 11.991 3.94323 12.4605 5.15284 12.4605C5.50218 12.4605 5.85153 12.363 6.19651 12.298C6.26201 12.2835 6.34061 12.2005 6.34935 12.1391C6.41048 11.7634 6.46725 11.3878 6.67686 11.0447C6.75546 10.9183 6.84716 10.7991 6.93886 10.6691C6.58515 10.6113 6.24454 10.5679 5.9083 10.4993C4.35808 10.1743 3.0786 9.53138 2.33624 8.31061C2.04803 7.83386 1.88646 7.32099 1.86463 6.78646C1.82969 5.96298 1.84279 5.13589 2.04367 4.32325C2.18777 3.7526 2.44978 3.22167 2.9738 2.80993C3.08734 2.71964 3.10917 2.64018 3.04803 2.50293C2.75546 1.82754 2.72489 1.14131 2.9738 0.451467C3.0262 0.303386 3.07424 0.155305 3.12664 0C4.32314 0.18781 5.03493 0.855982 5.70306 1.59639C6.39301 1.17381 7.20961 1.1377 8.00437 1.09436C8.9476 1.04379 9.8952 1.05463 10.8341 1.18104C11.3231 1.24605 11.6245 1.32912 12.1004 1.56388C12.5109 1.21354 12.8952 0.859594 13.3188 0.538149C13.655 0.281716 14.0742 0.119187 14.5284 0.0325056C14.655 0.00722339 14.7205 0.0180586 14.7729 0.133634C15.1266 0.931828 15.179 1.72641 14.7904 2.52461C14.738 2.63296 14.7424 2.7088 14.8515 2.79549C15.4803 3.29029 15.7686 3.92957 15.8646 4.61941C15.952 5.25869 16 5.90158 16 6.54447C16 7.45824 15.6725 8.29616 14.9782 9.0149C14.4891 9.52415 13.8559 9.88894 13.1397 10.1634C12.4454 10.4271 11.7205 10.5788 10.9694 10.6582C10.952 10.6619 10.9345 10.6727 10.9039 10.6835C11.4192 11.2939 11.5022 11.9801 11.4935 12.6916C11.4803 13.7282 11.4847 14.7612 11.4935 15.7977C11.4935 15.9603 11.4367 16 11.2445 16C9.69432 15.9928 8.1441 15.9928 6.59389 16C6.40175 16 6.34061 15.9494 6.34061 15.7941C6.34934 15.2343 6.34498 14.6745 6.34498 14.1147C6.35371 14.0316 6.35371 13.9594 6.35371 13.8727Z" fill="#9DA6AB"/>
</svg>
