<svg width="20" height="20" viewBox="0 0 20 20" fill="none" xmlns="http://www.w3.org/2000/svg">
<path fill-rule="evenodd" clip-rule="evenodd" d="M19.8214 8.0038H10.2113C10.2113 9.00338 10.2113 11.0018 10.205 12.0013H15.7738C15.5605 13.0009 14.8039 14.4001 13.7347 15.1048L13.7308 15.1095C12.3093 16.0481 10.4339 16.261 9.04096 15.9809C6.85775 15.5473 5.1304 13.9638 4.42884 11.9533L4.43899 11.9205C3.99993 10.6729 3.99993 9.00299 4.43899 8.00341H4.43782C5.00345 6.16635 6.78314 4.49022 8.96947 4.03164C10.7277 3.65861 12.7117 4.0625 14.1707 5.4277C14.3648 5.23786 16.8562 2.80511 17.0429 2.60746C12.0585 -1.90647 4.07649 -0.318236 1.09016 5.51129H1.08899L1.08391 5.52262C-0.39344 8.38582 -0.332111 11.7599 1.09406 14.4864L1.08391 14.4942C2.37649 17.0032 4.72923 18.9269 7.56361 19.6593C10.5746 20.4488 14.4066 19.9093 16.9738 17.5875L16.9769 17.5906C19.1515 15.6309 20.5058 12.2943 19.8214 8.0038Z" fill="#9DA6AB"/>
</svg>
