<svg width="16" height="16" viewBox="0 0 16 16" fill="none" xmlns="http://www.w3.org/2000/svg">
<path d="M7.99665 5.33142C6.52803 5.33142 5.32814 6.53134 5.32814 8C5.32814 9.46866 6.52803 10.6686 7.99665 10.6686C9.46527 10.6686 10.6652 9.46866 10.6652 8C10.6652 6.53134 9.46527 5.33142 7.99665 5.33142ZM15.999 8C15.999 6.89382 16.0084 5.80014 15.9459 4.69708C15.8834 3.41591 15.5928 2.28161 14.6554 1.34417C13.718 0.406724 12.5837 0.116117 11.3026 0.0536209C10.1965 -0.00887518 9.1028 0.000499229 7.99977 0.000499229C6.89362 0.000499229 5.79997 -0.00887518 4.69695 0.0536209C3.41581 0.116117 2.28154 0.406724 1.34413 1.34417C0.406712 2.28161 0.116114 3.41591 0.0536194 4.69708C-0.00887493 5.80326 0.000499215 6.89694 0.000499215 8C0.000499215 9.10306 -0.00887493 10.1999 0.0536194 11.3029C0.116114 12.5841 0.406712 13.7184 1.34413 14.6558C2.28154 15.5933 3.41581 15.8839 4.69695 15.9464C5.8031 16.0089 6.89675 15.9995 7.99977 15.9995C9.10592 15.9995 10.1996 16.0089 11.3026 15.9464C12.5837 15.8839 13.7211 15.5933 14.6554 14.6558C15.5928 13.7184 15.8834 12.5841 15.9459 11.3029C16.0115 10.1999 15.999 9.10618 15.999 8ZM7.99665 12.106C5.72498 12.106 3.89077 10.2717 3.89077 8C3.89077 5.72827 5.72498 3.89401 7.99665 3.89401C10.2683 3.89401 12.1025 5.72827 12.1025 8C12.1025 10.2717 10.2683 12.106 7.99665 12.106ZM12.2713 4.68458C11.7401 4.68458 11.312 4.25648 11.312 3.72527C11.312 3.19405 11.7401 2.76595 12.2713 2.76595C12.8025 2.76595 13.2305 3.19405 13.2305 3.72527C13.2305 4.25648 12.8025 4.68458 12.2713 4.68458Z" fill="#9DA6AB"/>
</svg>
