<svg width="16" height="16" viewBox="0 0 16 16" fill="none" xmlns="http://www.w3.org/2000/svg">
<path d="M3.47165 16H0.0559692V4.47265H3.47165V16ZM16 16H12.5843V9.8409C12.5843 8.23707 12.0187 7.43673 10.8999 7.43673C10.0124 7.43673 9.44987 7.88277 9.16862 8.77801V15.9968H5.74981C5.74981 15.9968 5.79669 5.62095 5.74981 4.46948H8.44673L8.65611 6.77559H8.72798C9.428 5.62412 10.5468 4.8396 12.0843 4.8396C13.2499 4.8396 14.1968 5.16859 14.9156 5.99423C15.6406 6.82304 16 7.93338 16 9.48977V16Z" fill="#9DA6AB"/>
<path d="M1.76565 0C2.74067 0 3.53131 0.775028 3.53131 1.73037C3.53131 2.68571 2.74067 3.46074 1.76565 3.46074C0.790638 3.46074 0 2.68571 0 1.73037C0 0.775028 0.790638 0 1.76565 0Z" fill="#9DA6AB"/>
</svg>
