<svg width="20" height="20" viewBox="0 0 20 20" fill="none" xmlns="http://www.w3.org/2000/svg">
<path d="M17.4385 19.0817C16.876 19.2983 16.5947 19.2983 16.3135 18.8651L13.2195 14.317C12.657 13.6672 12.9383 13.4507 13.5008 13.2341L14.9071 12.5844C15.4697 12.3678 15.7509 12.3678 16.0322 12.8009L19.6887 17.3491C19.9699 17.7822 19.6887 17.9988 19.1261 18.2154L17.4385 19.0817ZM8.15673 6.30357C7.59419 6.52015 7.31293 6.52015 7.03166 6.08699L3.65646 1.53884C3.3752 1.32227 3.3752 1.12735 3.65646 0.889109L5.62533 0.0877682C6.18786 -0.0854947 6.46913 0.0227946 6.75039 0.196057L10.1256 5.0041C10.4069 5.43726 10.1256 5.43726 9.84433 5.65384L8.15673 6.30357ZM6.46913 6.73673C3.09393 8.25278 8.43799 16.2662 12.657 14.317C13.2195 15.3999 15.1884 18.432 16.0322 19.2983C14.3446 19.948 13.2195 20.3812 10.9694 19.5149C5.90659 17.1325 0 9.55225 0 4.78752C0 3.05489 1.12507 2.40516 3.09393 1.75542C3.65646 2.62174 5.90659 5.65384 6.46913 6.73673Z" fill="#9DA6AB"/>
</svg>
