<svg width="21" height="20" viewBox="0 0 21 20" fill="none" xmlns="http://www.w3.org/2000/svg">
<path fill-rule="evenodd" clip-rule="evenodd" d="M16.6121 14.1211C16.3591 14.8031 15.3534 15.3676 14.5511 15.5328C14.0019 15.6438 13.2858 15.732 10.8728 14.7793C8.16293 13.7098 4.39975 9.90078 4.39975 7.36602C4.39975 6.07539 5.18109 4.57305 6.54691 4.57305C7.20439 4.57305 7.34918 4.58516 7.56533 5.0793C7.8184 5.66133 8.43568 7.0957 8.5091 7.24297C8.81262 7.84609 8.20025 8.19883 7.75605 8.72461C7.61414 8.88281 7.45377 9.05352 7.63342 9.34766C7.81184 9.63594 8.42912 10.5941 9.33639 11.3633C10.5082 12.3578 11.4585 12.675 11.7986 12.8102C12.0516 12.9098 12.3539 12.8867 12.5389 12.6988C12.7731 12.4578 13.0639 12.0578 13.36 11.6637C13.5688 11.3812 13.8346 11.3465 14.1131 11.4465C14.3009 11.5086 16.6897 12.5652 16.7906 12.734C16.8652 12.857 16.8652 13.4391 16.6121 14.1211ZM10.5021 0H10.4967C4.70818 0 0 4.48516 0 10C0 12.1867 0.740332 14.2152 1.9991 15.8609L0.690703 19.5766L4.72582 18.3484C6.38613 19.3949 8.3676 20 10.5021 20C16.2906 20 21 15.5145 21 10C21 4.48555 16.2906 0 10.5021 0Z" fill="#9DA6AB"/>
</svg>
