<svg width="20" height="20" viewBox="0 0 20 20" fill="none" xmlns="http://www.w3.org/2000/svg">
<path d="M9.99581 6.66427C8.16004 6.66427 6.66018 8.16418 6.66018 10C6.66018 11.8358 8.16004 13.3357 9.99581 13.3357C11.8316 13.3357 13.3314 11.8358 13.3314 10C13.3314 8.16418 11.8316 6.66427 9.99581 6.66427ZM19.9988 10C19.9988 8.61727 20.0105 7.25017 19.9324 5.87135C19.8543 4.26989 19.491 2.85201 18.3193 1.68021C17.1475 0.508405 15.7297 0.145146 14.1283 0.0670261C12.7456 -0.011094 11.3785 0.000624036 9.99972 0.000624036C8.61703 0.000624036 7.24997 -0.011094 5.87119 0.0670261C4.26977 0.145146 2.85193 0.508405 1.68016 1.68021C0.50839 2.85201 0.145142 4.26989 0.0670242 5.87135C-0.0110937 7.25408 0.000624019 8.62118 0.000624019 10C0.000624019 11.3788 -0.0110937 12.7498 0.0670242 14.1286C0.145142 15.7301 0.50839 17.148 1.68016 18.3198C2.85193 19.4916 4.26977 19.8549 5.87119 19.933C7.25387 20.0111 8.62094 19.9994 9.99972 19.9994C11.3824 19.9994 12.7495 20.0111 14.1283 19.933C15.7297 19.8549 17.1514 19.4916 18.3193 18.3198C19.491 17.148 19.8543 15.7301 19.9324 14.1286C20.0144 12.7498 19.9988 11.3827 19.9988 10ZM9.99581 15.1325C7.15622 15.1325 4.86346 12.8397 4.86346 10C4.86346 7.16033 7.15622 4.86751 9.99581 4.86751C12.8354 4.86751 15.1282 7.16033 15.1282 10C15.1282 12.8397 12.8354 15.1325 9.99581 15.1325ZM15.3391 5.85573C14.6751 5.85573 14.14 5.3206 14.14 4.65658C14.14 3.99256 14.6751 3.45744 15.3391 3.45744C16.0031 3.45744 16.5382 3.99256 16.5382 4.65658C16.5382 5.3206 16.0031 5.85573 15.3391 5.85573Z" fill="white"/>
</svg>
