<svg width="85" height="86" viewBox="0 0 85 86" fill="none" xmlns="http://www.w3.org/2000/svg">
<rect x="0.707107" y="43.3555" width="59" height="59" transform="rotate(-45 0.707107 43.3555)" fill="#D53529" stroke="#D53529"/>
<path d="M24.8784 42.582L27.9936 28.3594H29.852L30.8618 29.5732L27.5424 44H25.4907L24.8784 42.582ZM24.0512 28.3594L26.683 42.6895L26.0063 44H23.6323L20.3129 28.3594H24.0512ZM32.5698 42.6143L35.1801 28.3594H38.9077L35.5883 44H33.225L32.5698 42.6143ZM31.1948 28.3594L34.3852 42.668L33.7407 44H31.6889L28.2944 29.5518L29.3471 28.3594H31.1948ZM45.9434 44.2148C44.998 44.2148 44.153 44.068 43.4082 43.7744C42.6634 43.4736 42.0332 43.0618 41.5176 42.5391C41.0091 42.0163 40.6188 41.4147 40.3467 40.7344C40.0817 40.054 39.9492 39.3343 39.9492 38.5752V38.167C39.9492 37.3148 40.0674 36.527 40.3037 35.8037C40.54 35.0732 40.891 34.4359 41.3564 33.8916C41.8219 33.3473 42.4056 32.9248 43.1074 32.624C43.8092 32.3161 44.6257 32.1621 45.5566 32.1621C46.3802 32.1621 47.1178 32.2946 47.7695 32.5596C48.4212 32.8245 48.9727 33.2041 49.4238 33.6982C49.8822 34.1924 50.2295 34.7904 50.4658 35.4922C50.7093 36.194 50.8311 36.9818 50.8311 37.8555V39.3271H41.335V37.0605H47.2969V36.7812C47.304 36.3945 47.236 36.0651 47.0928 35.793C46.9567 35.5208 46.7562 35.3132 46.4912 35.1699C46.2262 35.0267 45.904 34.9551 45.5244 34.9551C45.1305 34.9551 44.8047 35.041 44.5469 35.2129C44.2962 35.3848 44.0993 35.6211 43.9561 35.9219C43.82 36.2155 43.7233 36.5557 43.666 36.9424C43.6087 37.3291 43.5801 37.7373 43.5801 38.167V38.5752C43.5801 39.0049 43.6374 39.3952 43.752 39.7461C43.8737 40.097 44.0456 40.3978 44.2676 40.6484C44.4967 40.8919 44.7689 41.0817 45.084 41.2178C45.4062 41.3538 45.7715 41.4219 46.1797 41.4219C46.6738 41.4219 47.1608 41.3288 47.6406 41.1426C48.1204 40.9564 48.5322 40.6484 48.876 40.2188L50.5195 42.1738C50.2832 42.5104 49.9466 42.8363 49.5098 43.1514C49.0801 43.4665 48.5645 43.7243 47.9629 43.9248C47.3613 44.1182 46.6882 44.2148 45.9434 44.2148ZM59.2955 37.3506H55.2671L55.2457 34.8799H58.5113C59.0985 34.8799 59.5676 34.8154 59.9185 34.6865C60.2694 34.5505 60.5237 34.3535 60.6812 34.0957C60.8459 33.8379 60.9283 33.5156 60.9283 33.1289C60.9283 32.6849 60.8459 32.3268 60.6812 32.0547C60.5165 31.7826 60.2551 31.5856 59.897 31.4639C59.5461 31.335 59.0914 31.2705 58.5328 31.2705H56.6851V44H52.9146V28.3594H58.5328C59.4996 28.3594 60.3625 28.4489 61.1216 28.6279C61.8808 28.7998 62.5253 29.0648 63.0552 29.4229C63.5923 29.7809 64.0005 30.2321 64.2798 30.7764C64.5591 31.3135 64.6988 31.9473 64.6988 32.6777C64.6988 33.3151 64.5627 33.9131 64.2906 34.4717C64.0184 35.0303 63.5637 35.485 62.9263 35.8359C62.2961 36.1797 61.4332 36.3587 60.3375 36.373L59.2955 37.3506ZM59.1451 44H54.3541L55.6431 41.0996H59.1451C59.6607 41.0996 60.0725 41.0208 60.3804 40.8633C60.6955 40.6986 60.9211 40.4837 61.0572 40.2188C61.2004 39.9466 61.272 39.6458 61.272 39.3164C61.272 38.9154 61.204 38.568 61.0679 38.2744C60.939 37.9808 60.7313 37.7552 60.4449 37.5977C60.1584 37.4329 59.7753 37.3506 59.2955 37.3506H56.1265L56.148 34.8799H59.94L60.8209 35.8682C61.8664 35.8252 62.6936 35.972 63.3023 36.3086C63.9182 36.6452 64.3586 37.0892 64.6236 37.6406C64.8886 38.1921 65.0211 38.7686 65.0211 39.3701C65.0211 40.3942 64.799 41.25 64.355 41.9375C63.9182 42.625 63.2629 43.1406 62.3892 43.4844C61.5155 43.8281 60.4341 44 59.1451 44ZM27.5781 55.125C27.5781 54.8594 27.5365 54.625 27.4531 54.4219C27.375 54.2135 27.2344 54.026 27.0312 53.8594C26.8333 53.6927 26.5573 53.5339 26.2031 53.3828C25.8542 53.2318 25.4115 53.0781 24.875 52.9219C24.3125 52.7552 23.8047 52.5703 23.3516 52.3672C22.8984 52.1589 22.5104 51.9219 22.1875 51.6562C21.8646 51.3906 21.6172 51.0859 21.4453 50.7422C21.2734 50.3984 21.1875 50.0052 21.1875 49.5625C21.1875 49.1198 21.2786 48.7109 21.4609 48.3359C21.6432 47.9609 21.9036 47.6354 22.2422 47.3594C22.5859 47.0781 22.9948 46.8594 23.4688 46.7031C23.9427 46.5469 24.4714 46.4688 25.0547 46.4688C25.9089 46.4688 26.6328 46.6328 27.2266 46.9609C27.8255 47.2839 28.2812 47.7083 28.5938 48.2344C28.9062 48.7552 29.0625 49.3125 29.0625 49.9062H27.5625C27.5625 49.4792 27.4714 49.1016 27.2891 48.7734C27.1068 48.4401 26.8307 48.1797 26.4609 47.9922C26.0911 47.7995 25.6224 47.7031 25.0547 47.7031C24.5182 47.7031 24.0755 47.7839 23.7266 47.9453C23.3776 48.1068 23.1172 48.3255 22.9453 48.6016C22.7786 48.8776 22.6953 49.1927 22.6953 49.5469C22.6953 49.7865 22.7448 50.0052 22.8438 50.2031C22.9479 50.3958 23.1068 50.5755 23.3203 50.7422C23.5391 50.9089 23.8151 51.0625 24.1484 51.2031C24.487 51.3438 24.8906 51.4792 25.3594 51.6094C26.0052 51.7917 26.5625 51.9948 27.0312 52.2188C27.5 52.4427 27.8854 52.6953 28.1875 52.9766C28.4948 53.2526 28.7214 53.5677 28.8672 53.9219C29.0182 54.2708 29.0938 54.6667 29.0938 55.1094C29.0938 55.5729 29 55.9922 28.8125 56.3672C28.625 56.7422 28.3568 57.0625 28.0078 57.3281C27.6589 57.5938 27.2396 57.7995 26.75 57.9453C26.2656 58.0859 25.724 58.1562 25.125 58.1562C24.599 58.1562 24.0807 58.0833 23.5703 57.9375C23.0651 57.7917 22.6042 57.5729 22.1875 57.2812C21.776 56.9896 21.4453 56.6302 21.1953 56.2031C20.9505 55.7708 20.8281 55.2708 20.8281 54.7031H22.3281C22.3281 55.0938 22.4036 55.4297 22.5547 55.7109C22.7057 55.987 22.9115 56.2161 23.1719 56.3984C23.4375 56.5807 23.737 56.7161 24.0703 56.8047C24.4089 56.888 24.7604 56.9297 25.125 56.9297C25.651 56.9297 26.0964 56.8568 26.4609 56.7109C26.8255 56.5651 27.1016 56.3568 27.2891 56.0859C27.4818 55.8151 27.5781 55.4948 27.5781 55.125ZM34.3359 49.5469V50.6562H29.7656V49.5469H34.3359ZM31.3125 47.4922H32.7578V55.9062C32.7578 56.1927 32.8021 56.4089 32.8906 56.5547C32.9792 56.7005 33.0938 56.7969 33.2344 56.8438C33.375 56.8906 33.526 56.9141 33.6875 56.9141C33.8073 56.9141 33.9323 56.9036 34.0625 56.8828C34.1979 56.8568 34.2995 56.8359 34.3672 56.8203L34.375 58C34.2604 58.0365 34.1094 58.0703 33.9219 58.1016C33.7396 58.138 33.5182 58.1562 33.2578 58.1562C32.9036 58.1562 32.5781 58.0859 32.2812 57.9453C31.9844 57.8047 31.7474 57.5703 31.5703 57.2422C31.3984 56.9089 31.3125 56.4609 31.3125 55.8984V47.4922ZM41.2031 56.0469V49.5469H42.6562V58H41.2734L41.2031 56.0469ZM41.4766 54.2656L42.0781 54.25C42.0781 54.8125 42.0182 55.3333 41.8984 55.8125C41.7839 56.2865 41.5964 56.6979 41.3359 57.0469C41.0755 57.3958 40.7344 57.6693 40.3125 57.8672C39.8906 58.0599 39.3776 58.1562 38.7734 58.1562C38.362 58.1562 37.9844 58.0964 37.6406 57.9766C37.3021 57.8568 37.0104 57.6719 36.7656 57.4219C36.5208 57.1719 36.3307 56.8464 36.1953 56.4453C36.0651 56.0443 36 55.5625 36 55V49.5469H37.4453V55.0156C37.4453 55.3958 37.487 55.7109 37.5703 55.9609C37.6589 56.2057 37.776 56.401 37.9219 56.5469C38.0729 56.6875 38.2396 56.7865 38.4219 56.8438C38.6094 56.901 38.8021 56.9297 39 56.9297C39.6146 56.9297 40.1016 56.8125 40.4609 56.5781C40.8203 56.3385 41.0781 56.0182 41.2344 55.6172C41.3958 55.2109 41.4766 54.7604 41.4766 54.2656ZM50.1875 56.3594V46H51.6406V58H50.3125L50.1875 56.3594ZM44.5 53.8672V53.7031C44.5 53.0573 44.5781 52.4714 44.7344 51.9453C44.8958 51.4141 45.1224 50.9583 45.4141 50.5781C45.7109 50.1979 46.0625 49.9062 46.4688 49.7031C46.8802 49.4948 47.3385 49.3906 47.8438 49.3906C48.375 49.3906 48.8385 49.4844 49.2344 49.6719C49.6354 49.8542 49.974 50.1224 50.25 50.4766C50.5312 50.8255 50.7526 51.2474 50.9141 51.7422C51.0755 52.237 51.1875 52.7969 51.25 53.4219V54.1406C51.1927 54.7604 51.0807 55.3177 50.9141 55.8125C50.7526 56.3073 50.5312 56.7292 50.25 57.0781C49.974 57.4271 49.6354 57.6953 49.2344 57.8828C48.8333 58.0651 48.3646 58.1562 47.8281 58.1562C47.3333 58.1562 46.8802 58.0495 46.4688 57.8359C46.0625 57.6224 45.7109 57.3229 45.4141 56.9375C45.1224 56.5521 44.8958 56.099 44.7344 55.5781C44.5781 55.0521 44.5 54.4818 44.5 53.8672ZM45.9531 53.7031V53.8672C45.9531 54.2891 45.9948 54.6849 46.0781 55.0547C46.1667 55.4245 46.3021 55.75 46.4844 56.0312C46.6667 56.3125 46.8984 56.5339 47.1797 56.6953C47.4609 56.8516 47.7969 56.9297 48.1875 56.9297C48.6667 56.9297 49.0599 56.8281 49.3672 56.625C49.6797 56.4219 49.9297 56.1536 50.1172 55.8203C50.3047 55.487 50.4505 55.125 50.5547 54.7344V52.8516C50.4922 52.5651 50.401 52.2891 50.2812 52.0234C50.1667 51.7526 50.0156 51.513 49.8281 51.3047C49.6458 51.0911 49.4193 50.9219 49.1484 50.7969C48.8828 50.6719 48.5677 50.6094 48.2031 50.6094C47.8073 50.6094 47.4661 50.6927 47.1797 50.8594C46.8984 51.0208 46.6667 51.2448 46.4844 51.5312C46.3021 51.8125 46.1667 52.1406 46.0781 52.5156C45.9948 52.8854 45.9531 53.2812 45.9531 53.7031ZM55.4609 49.5469V58H54.0078V49.5469H55.4609ZM53.8984 47.3047C53.8984 47.0703 53.9688 46.8724 54.1094 46.7109C54.2552 46.5495 54.4688 46.4688 54.75 46.4688C55.026 46.4688 55.237 46.5495 55.3828 46.7109C55.5339 46.8724 55.6094 47.0703 55.6094 47.3047C55.6094 47.5286 55.5339 47.7214 55.3828 47.8828C55.237 48.0391 55.026 48.1172 54.75 48.1172C54.4688 48.1172 54.2552 48.0391 54.1094 47.8828C53.9688 47.7214 53.8984 47.5286 53.8984 47.3047ZM57.3984 53.8672V53.6875C57.3984 53.0781 57.487 52.513 57.6641 51.9922C57.8411 51.4661 58.0964 51.0104 58.4297 50.625C58.763 50.2344 59.1667 49.9323 59.6406 49.7188C60.1146 49.5 60.6458 49.3906 61.2344 49.3906C61.8281 49.3906 62.362 49.5 62.8359 49.7188C63.3151 49.9323 63.7214 50.2344 64.0547 50.625C64.3932 51.0104 64.651 51.4661 64.8281 51.9922C65.0052 52.513 65.0938 53.0781 65.0938 53.6875V53.8672C65.0938 54.4766 65.0052 55.0417 64.8281 55.5625C64.651 56.0833 64.3932 56.5391 64.0547 56.9297C63.7214 57.3151 63.3177 57.6172 62.8438 57.8359C62.375 58.0495 61.8438 58.1562 61.25 58.1562C60.6562 58.1562 60.1224 58.0495 59.6484 57.8359C59.1745 57.6172 58.7682 57.3151 58.4297 56.9297C58.0964 56.5391 57.8411 56.0833 57.6641 55.5625C57.487 55.0417 57.3984 54.4766 57.3984 53.8672ZM58.8438 53.6875V53.8672C58.8438 54.2891 58.8932 54.6875 58.9922 55.0625C59.0911 55.4323 59.2396 55.7604 59.4375 56.0469C59.6406 56.3333 59.8932 56.5599 60.1953 56.7266C60.4974 56.888 60.849 56.9688 61.25 56.9688C61.6458 56.9688 61.9922 56.888 62.2891 56.7266C62.5911 56.5599 62.8411 56.3333 63.0391 56.0469C63.237 55.7604 63.3854 55.4323 63.4844 55.0625C63.5885 54.6875 63.6406 54.2891 63.6406 53.8672V53.6875C63.6406 53.2708 63.5885 52.8776 63.4844 52.5078C63.3854 52.1328 63.2344 51.8021 63.0312 51.5156C62.8333 51.224 62.5833 50.9948 62.2812 50.8281C61.9844 50.6615 61.6354 50.5781 61.2344 50.5781C60.8385 50.5781 60.4896 50.6615 60.1875 50.8281C59.8906 50.9948 59.6406 51.224 59.4375 51.5156C59.2396 51.8021 59.0911 52.1328 58.9922 52.5078C58.8932 52.8776 58.8438 53.2708 58.8438 53.6875Z" fill="white"/>
</svg>
